<svg id="Warstwa_1" data-name="Warstwa 1" xmlns="http://www.w3.org/2000/svg" viewBox="0 0 276.85 276.85"><defs><style>.cls-1,.cls-13,.cls-14,.cls-17,.cls-7{fill:#7986cb;}.cls-1,.cls-13,.cls-17,.cls-2,.cls-5,.cls-6,.cls-7,.cls-8,.cls-9{stroke:#3f51b5;}.cls-1,.cls-10,.cls-11,.cls-12,.cls-13,.cls-14,.cls-15,.cls-16,.cls-17,.cls-2,.cls-3,.cls-4,.cls-5,.cls-6,.cls-7,.cls-8,.cls-9{stroke-miterlimit:10;}.cls-10,.cls-12,.cls-15,.cls-16,.cls-2,.cls-3,.cls-5,.cls-6,.cls-8,.cls-9{fill:none;}.cls-17,.cls-2,.cls-4{stroke-width:7.34px;}.cls-10,.cls-11,.cls-12,.cls-3,.cls-4{stroke:#1d1d1b;}.cls-13,.cls-3,.cls-8,.cls-9{stroke-width:6px;}.cls-11,.cls-4{fill:#fff;}.cls-5{stroke-width:5.25px;}.cls-10,.cls-11,.cls-12,.cls-14,.cls-15,.cls-16,.cls-17,.cls-6,.cls-7,.cls-8{stroke-linecap:round;}.cls-6{stroke-width:6.15px;}.cls-11,.cls-12,.cls-7{stroke-width:6.43px;}.cls-10{stroke-width:5px;}.cls-14,.cls-15,.cls-16{stroke:#303f9f;}.cls-14{stroke-width:3.73px;}.cls-15{stroke-width:3.81px;}.cls-16{stroke-width:6.42px;}</style></defs><path class="cls-1" d="M363.64,376.85c1.35,2-1.8,6.6-8.15,15.67a139,139,0,0,1-11.8,15.13A118.7,118.7,0,0,1,326,424a109,109,0,0,1-21.85,12.77c-11.16,4.8-19.36,8.32-30.45,7.48-5.16-.39-19.29-2.35-30.07-14.13-3.14-3.43-11.72-12.79-10.94-24.45.57-8.48,5.86-15.08,3.15-17.67-1.27-1.21-2.74-.06-6.85-.37-8.94-.68-14.7-7.06-15.25-7.69-1.75-2-4.94-5.64-4.58-10.69.08-1,.56-5.79,4.05-8,4-2.5,8,.77,10.67-1.77,2-1.87.26-4.09,2.43-7.14,2.62-3.67,7.65-4,8-4.05,4.14-.25,5.7.41,10.83,1.31a53.53,53.53,0,0,0,10.06,1.06c1.75.07,8.29.46,12.32,4.72,5.12,5.41,4.14,15,3.53,21-.56,5.54-1.48,8.66-.5,9.1,1.51.69,4.18-6.52,11.54-12.82,9.05-7.74,19.4-9.16,25.22-10,6.6-.91,9,.1,9.88.3,4.81,1.12,5,5.37,10.76,9.46,4,2.83,7.78,3.58,11.72,4.37C353.25,379.56,361.59,373.77,363.64,376.85Z" transform="translate(-157.09 -228.63)"/><path class="cls-2" d="M315.81,362.86c-9.39,2.22-18.31,5.15-32.48,14.91-8.87,6.11-23.7,19.18-26.05,27" transform="translate(-157.09 -228.63)"/><line class="cls-3" x1="125.73" y1="154.62" x2="125.73" y2="154.62"/><path class="cls-3" d="M218.33,376.19" transform="translate(-157.09 -228.63)"/><path class="cls-3" d="M196.07,337.06" transform="translate(-157.09 -228.63)"/><path class="cls-3" d="M289.88,413.55" transform="translate(-157.09 -228.63)"/><path class="cls-4" d="M256.61,393.5" transform="translate(-157.09 -228.63)"/><path class="cls-4" d="M255.93,394.64" transform="translate(-157.09 -228.63)"/><path class="cls-5" d="M224.53,360.52c-1.81-2.34-1-4.25,3.45-8.88,4.09-4.22,16.24-4.61,18.81,1.49" transform="translate(-157.09 -228.63)"/><path class="cls-6" d="M244.27,354.58a19.65,19.65,0,0,1,11.67-3.29c1.79.07,6,.18,9.29,2.66,8.34,6.21,5.15,22.28,4.5,25.49a44.07,44.07,0,0,1-12.45,22.41" transform="translate(-157.09 -228.63)"/><path class="cls-7" d="M309.46,363.67a3.79,3.79,0,0,1-1.84-.75c-2.08-1.51-3.19-4.58-3.35-5a22.43,22.43,0,0,0-3.85-7.2,11.67,11.67,0,0,0-4-3.23c-1.68-.72-3.36.9-4,1.72-2.21,2.82.13,9.88,5.47,17.6" transform="translate(-157.09 -228.63)"/><path class="cls-8" d="M364.16,377.33c-7.56,14.28-26.3,44.93-60.1,59.76-9.21,4-22.53,9.67-38.35,5.77-3.78-.93-17.07-4.41-25.67-16.71-14.26-20.38-2.26-45.82-1.75-46.86" transform="translate(-157.09 -228.63)"/><path class="cls-9" d="M233.37,388.72c-6.1.06-17.78-2.32-23.81-12.53-1.81-3.07-2.39-7.41,2.1-13.46,4.09-5.53,16.24-6,18.81,1.95" transform="translate(-157.09 -228.63)"/><path class="cls-8" d="M226.06,368.89c1.12-2.27,3.56-5.23,7.31-8.28a20.68,20.68,0,0,1,20.87-2c6.84,3,6.08,10.64,5.24,16.71-.65,4.68-1.49,3.28-6.07,19-2.21,7.55,2.64,10.6,6.16,13.19,3.93,2.88,2.68,2.07,6.27,3.64" transform="translate(-157.09 -228.63)"/><path class="cls-4" d="M349.35,331.63" transform="translate(-157.09 -228.63)"/><path class="cls-4" d="M273.15,452.62" transform="translate(-157.09 -228.63)"/><path class="cls-10" d="M238.67,311.2" transform="translate(-157.09 -228.63)"/><path class="cls-11" d="M268.82,331.06" transform="translate(-157.09 -228.63)"/><path class="cls-12" d="M116.62,181.29" transform="translate(-157.09 -228.63)"/><path class="cls-13" d="M383.09,354.09c2-4,12.9-27.49-1.39-46.26a39.27,39.27,0,0,0-37.06-14.77c-16.4,2.7-24.93,15.52-27,18.67a47.37,47.37,0,0,0-8.23,27c.07,4.39.41,15.66,8.51,25.91,1.09,1.38,13.54,16.64,32.53,15.12C371.2,378.15,381.22,357.88,383.09,354.09Z" transform="translate(-157.09 -228.63)"/><path class="cls-14" d="M344.56,325.22c-1.11.39-3.41,3.57-8.59,2-4.09-1.27-4.91-3.71-5.76-4.69" transform="translate(-157.09 -228.63)"/><path class="cls-15" d="M315,341.78a14,14,0,0,0,14.67,4.6" transform="translate(-157.09 -228.63)"/><path class="cls-16" d="M280,397.22a157.13,157.13,0,0,1-8.55-26.44c-4.87-21.31-1.63-27.57-7.21-39.11-7.06-14.59-16.74-13.88-27.35-27-7.15-8.86-14.55-23.82-13.67-50.12" transform="translate(-157.09 -228.63)"/><path class="cls-17" d="M312.42,378.3c-3.15-.07-11-.58-17.09-4.63-3.46-2.28-4.45-4.41-4.79-5.24a10.33,10.33,0,0,1-.53-5.54,16.88,16.88,0,0,0-1.74-8.66,7.82,7.82,0,0,0-3.19-3.8,6.48,6.48,0,0,0-6.76.46c-1.6,1.29-1.83,3.53-2.21,8a36.56,36.56,0,0,0,0,7.41c.44,4.38.89,8.75,4,12.67a22.23,22.23,0,0,0,6,5,31.07,31.07,0,0,0,4.77,2.33,58.87,58.87,0,0,0,12.26,3.89,53.59,53.59,0,0,0,11.9.9" transform="translate(-157.09 -228.63)"/><circle class="cls-9" cx="138.43" cy="138.43" r="135.43"/></svg>